# xmcd CD database file
#
# Track frame offsets:
#	150
#	27911
#	45956
#	67075
#
# Disc length: 984 seconds
#
# Revision: 0
# Processed by: cddbd v1.5.1PL2 Copyright (c) Steve Scherf et al.
# Submitted via: CDex 1.51
#
DISCID=2c03d604
DTITLE=surface - ココロのつぼみ
DYEAR=2006
DGENRE=J-Pop
TTITLE0=ココロのつぼみ
TTITLE1=だいじなもん
TTITLE2=ハニカムハニ
TTITLE3=ココロのつぼみ -TV Edit-
EXTD=YEAR: 2006/3/8
EXTT0=
EXTT1=
EXTT2=
EXTT3=
PLAYORDER=
